<svg height="33" viewBox="0 0 35 33" width="35" xmlns="http://www.w3.org/2000/svg"><g fill="none" fill-rule="evenodd" transform="translate(1 1)"><path d="m16.6666089.66666667c8.8364955 0 16.0000578 5.74575901 16.0000578 12.83350953 0 2.4757171-.8746217 4.7872267-2.3887007 6.7475404-.0750402.1117073-.1728232.234863-.2963508.3710858l-.0093512.0102919c-.5170842.6197098-1.0995111 1.2017213-1.7398921 1.7387492-4.4245973 4.0966301-11.7074156 8.9738239-12.6686221 8.2213604-.8356007-.6540546 1.3762361-3.8532098-1.1755903-4.3856121-.1780183-.0205838-.3555748-.0424395-.5316305-.0674176l-.0033479-.0003469v-.0002313c-7.49489331-1.0665392-13.18651443-6.3178255-13.18651443-12.6354198 0-7.08775052 7.16333135-12.83350953 15.99994223-12.83350953" stroke="#fff" stroke-width="1.6"/><path d="m13.1226723 17.6535279h.0701815c.4627561 0 .8412477-.3339101.8412477-.7420339v-5.5028961c0-.4080211-.3784916-.7418286-.8412477-.7418286h-.0701815c-.4627561 0-.8413641.3338075-.8413641.7418286v5.5028961c0 .4081238.378608.7420339.8413641.7420339m8.2877095-.2212039.0002327-.000308c.1501397-.1343647.2432496-.3183078.2432496-.520522v-5.5027935c0-.4080211-.3784917-.7418285-.8413641-.7418285h-.0701816c-.462756 0-.8412476.3338074-.8412476.7418285v3.2302955l-3.0407356-3.5969499c-.1452514-.2237701-.4187616-.3751741-.7304469-.3751741h-.0701816c-.462756 0-.8413641.3338074-.8413641.7418285v5.5027935c0 .4082264.3784917.7421365.8413641.7421365h.0701816c.462756 0 .8412476-.3339101.8412476-.7421365v-3.2905492l3.0626164 3.6891268c.0188548.025867.0393389.0507075.0616853.074419l.0001164.0002052c.084148.1011072.1992551.1705991.3273976.2129922.0986964.0359264.2064711.0558399.3191341.0558399h.0702979c.1417598 0 .2754888-.0315126.39304-.0867366.0840317-.0352079.155028-.0808857.2049582-.1344673m6.2562849-3.2281399v-.0617934c0-.4082264-.3784917-.7420339-.8412477-.7420339h-2.3417132v-1.1746902h2.3417132c.462756 0 .8412477-.3339101.8412477-.7419312v-.0618961c0-.4082264-.3784917-.7419312-.8412477-.7419312h-3.1831937-.015945-.0541202c-.462756 0-.8412476.3337048-.8412476.7419312v5.5026908c0 .4082265.3784916.7421366.8412476.7421366h.0541202.015945 3.1831937c.462756 0 .8412477-.3339101.8412477-.7421366v-.0617933c0-.4082264-.3784917-.7420339-.8412477-.7420339h-2.3417132v-1.1746902h2.3417132c.462756.0002053.8412477-.3337049.8412477-.7418286m-20.15875236 3.4493438h.05412011.01606145 3.1830773c.462756 0 .8412477-.3339101.8412477-.7420339v-.061896c0-.4082264-.3784917-.7420339-.8412477-.7420339h-2.34182962v-4.6990689c0-.4080211-.37849162-.7418285-.84124768-.7418285h-.07018156c-.46275605 0-.84124767.3338074-.84124767.7418285v5.5028962c0 .4082264.37849162.7421365.84124767.7421365" fill="#fff"/></g></svg>