<svg height="57" viewBox="0 0 58 57" width="58"
    xmlns="http://www.w3.org/2000/svg">
    <g fill="none" fill-rule="evenodd" stroke="#fff" stroke-width="2" transform="translate(2 2)">
        <path d="m41.8 18.1h9.9c-3.6-10.2-13.3-17.5-24.7-17.5 6.8 0 12.6 7.3 14.8 17.5z"/>
        <path d="m2.3 18.1h9.9c2.2-10.2 8-17.4 14.8-17.4-11.4-.1-21.1 7.2-24.7 17.4z"/>
        <path d="m41.8 18.1c-2.2-10.2-8-17.4-14.8-17.4v17.4z"/>
        <path d="m27 .6c-6.8 0-12.6 7.3-14.8 17.4h14.8z"/>
        <path d="m11.3 26.8c0-3.1.3-6 .9-8.7h-9.9c-1 2.7-1.5 5.7-1.5 8.7 0 3.1.5 6 1.5 8.7h9.9c-.6-2.7-.9-5.7-.9-8.7z"/>
        <path d="m42.7 26.8c0 3.1-.3 6-.9 8.7h9.9c1-2.7 1.5-5.7 1.5-8.7 0-3.1-.5-6-1.5-8.7h-9.9c.6 2.7.9 5.6.9 8.7z"/>
        <path d="m12.2 35.5h14.8v-17.4h-14.8c-.6 2.7-.9 5.7-.9 8.7s.3 6 .9 8.7z"/>
        <path d="m27 35.5h14.8c.6-2.7.9-5.7.9-8.7 0-3.1-.3-6-.9-8.7h-14.8z"/>
        <path d="m27 52.9c11.4 0 21.1-7.3 24.7-17.4h-9.9c-2.2 10.2-8 17.4-14.8 17.4z"/>
        <path d="m12.2 35.5h-9.9c3.6 10.2 13.3 17.4 24.7 17.4-6.8 0-12.6-7.2-14.8-17.4z"/>
        <path d="m12.2 35.5c2.2 10.2 8 17.4 14.8 17.4v-17.4z"/>
        <path d="m41.8 35.5h-14.8v17.4c6.8 0 12.6-7.2 14.8-17.4z"/>
    </g>
</svg>