<svg height="32" viewBox="0 0 32 32" width="32" xmlns="http://www.w3.org/2000/svg"><path d="m38.2390558 35.2549298c-.3692426-.1724824-2.1837147-1.0058849-2.5218917-1.1208207-.3381769-.1150934-.5841698-.1724824-.8303316.1723248-.2459929.344965-.9532436 1.1209784-1.1686774 1.3510076-.2152649.2298715-.4305298.258566-.7996035.0862412-.3690738-.1724825-1.5581803-.5363669-2.9677855-1.7100044-1.0970913-.9134949-1.8379402-2.0418834-2.0532051-2.3868483-.2152649-.344965-.0227927-.5313217.161913-.7031735.165965-.1541937.3690738-.402354.5536107-.603531s.2459929-.3449649.3690737-.5748364c.1229121-.2298715.0614561-.4312062-.0308968-.603531-.092184-.1724825-.8303316-1.8682973-1.1377805-2.5580695-.2995137-.6717987-.6039236-.5809852-.8303316-.5915486-.2150961-.0099327-.4614267-.01214-.7074196-.01214s-.6459635.0863989-.9841405.4312062c-.3381769.3449649-1.2915894 1.178525-1.2915894 2.8741822 0 1.6958148 1.3223174 3.3340829 1.5068543 3.5639544.1845369.2300292 2.6024261 3.7099496 6.3046447 5.2022225.8804757.3550553 1.5679727.567111 2.1040245.7258769.8840212.2621923 1.688521.2251416 2.3243545.1365355.7091079-.0990119 2.1835458-.8335602 2.4911636-1.6384258.3074489-.804708.3074489-1.4944802.2152649-1.6381104-.092184-.1436303-.3381769-.2298716-.7072507-.4025117m-13.3700348 8.7943847-.5113803-.3034229-5.9098966 1.8875844 2.02564-5.6622726-.3328977-.5294498c-1.4014823-2.2281172-2.1415974-4.8035535-2.1404864-7.4479145.0031248-7.7161049 6.2833212-13.9938391 14.0058178-13.9938391 3.7390831.0015402 7.2542448 1.4591636 9.8975956 4.1042947 2.6431582 2.6451312 4.098166 6.1614478 4.0965866 9.900711-.002849 7.716875-6.2834304 13.9949943-13.9997658 13.9949943-2.5178162-.0009626-4.9817218-.6755779-7.1312132-1.9506855zm7.1976344-28.0493145c-8.7819588 0-15.9295141 7.1128436-15.9331567 15.8558575-.0010927 2.7947329.7325129 5.5225619 2.1268736 7.9271128l-2.2603723 8.2170297 8.4462996-2.2051084c2.3272127 1.263196 4.947467 1.9289712 7.6139814 1.9300591h.0065566c8.7812302 0 15.9295141-7.1135689 15.9331624-15.8565827.0014513-4.2368833-1.6540788-8.2208372-4.6624447-11.2179136-3.0081838-2.9972577-7.0084107-4.6486413-11.2708999-4.6504544z" fill="#fff" fill-rule="evenodd" transform="translate(-16 -16)"/></svg>